<svg viewBox="0 0 330 242" fill="none" xmlns="http://www.w3.org/2000/svg">
<path d="M39.2145 103.428L328.721 102.093L329.211 240.187L39.7046 241.523L39.2145 103.428Z" fill="white"/>
<path d="M94.265 1.15299L178.895 0L178.923 6.76421L94.2938 7.9172L94.265 1.15299Z" fill="white"/>
<path d="M274.855 233.604L0.916992 234.847L0.947687 241.611L274.886 240.368L274.855 233.604Z" fill="white"/>
<path d="M49.3464 229.431L58.6857 147.496H91.4402L100.669 229.431H82.322L80.972 216.171H69.2643L68.1402 229.431H49.3416H49.3464ZM70.7296 203.104H79.5115L75.2359 161.424H74.3375L70.7344 203.104H70.7296Z" fill="#FF0003"/>
<path d="M123.138 229.431V147.535H161.84V163.36H142.825V179.28H161.052V194.726H142.825V213.51H163.075V229.431H123.138Z" fill="#FF0003"/>
<path d="M169.488 229.431V147.535H208.19V163.456H188.954V176.518H207.181V192.247H188.954V229.431H169.493H169.488Z" fill="#FF0003"/>
<path d="M211.788 229.431L221.128 147.535H253.868L263.092 229.431H244.754L243.404 216.176H231.702L230.577 229.431H211.788ZM233.162 203.114H241.939L237.663 161.448H236.765L233.167 203.114H233.162Z" fill="#FF0003"/>
<path d="M272.873 224.66C268.972 220.976 267.021 215.033 267.021 206.832V198.824H286.036V209.028C286.036 213.097 287.574 215.129 290.648 215.129C292.373 215.129 293.574 214.701 294.247 213.841C294.924 212.981 295.26 211.54 295.26 209.503C295.26 206.832 294.885 204.627 294.136 202.878C293.387 201.13 292.431 199.669 291.268 198.492C290.105 197.315 288.02 195.49 285.023 193.011L276.697 185.953C270.245 180.616 267.021 174.702 267.021 168.221C267.021 161.231 268.914 155.908 272.705 152.252C276.49 148.597 282.02 146.771 289.298 146.771C297.999 146.771 304.263 148.726 308.087 152.632C311.911 156.543 313.823 162.658 313.823 170.984H294.136L294.026 165.358C294.026 164.277 293.67 163.422 292.954 162.783C292.238 162.149 291.249 161.832 289.976 161.832C288.472 161.832 287.348 162.183 286.598 162.879C285.849 163.581 285.474 164.532 285.474 165.738C285.474 168.409 287.276 171.171 290.874 174.034L302.125 183.186C304.748 185.348 306.925 187.399 308.649 189.336C310.374 191.276 311.762 193.563 312.81 196.201C313.862 198.838 314.385 201.97 314.385 205.593C314.385 213.664 312.641 219.784 309.154 223.944C305.666 228.11 299.911 230.19 291.883 230.19C283.106 230.19 276.769 228.35 272.868 224.66H272.873Z" fill="#FF0003"/>
</svg>
