<svg viewBox="0 0 318 242" fill="none" xmlns="http://www.w3.org/2000/svg">
<path d="M39.2134 103.425L317.281 102.092L317.767 240.188L39.7036 241.521L39.2134 103.425Z" fill="white"/>
<path d="M160.29 1.15175L244.92 0L244.954 6.76299L160.319 7.91474L160.29 1.15175Z" fill="white"/>
<path d="M274.855 233.607L0.916565 234.85L0.947254 241.613L274.886 240.37L274.855 233.607Z" fill="white"/>
<path d="M53.7483 229.428L61.1062 164.901H86.9017L94.1692 229.428H79.7199L78.6585 218.986H69.4398L68.5545 229.428H53.7531H53.7483ZM84.1508 162.949L63.5858 159.494V146.725L84.1508 154.763V162.949ZM70.5915 208.696H77.5068L74.1372 175.866H73.4281L70.5915 208.696Z" fill="#FF0003"/>
<path d="M112.573 229.427V147.529H151.276V163.354H132.263V179.274H150.491V194.718H132.263V213.498H152.514V229.418H112.573V229.427Z" fill="#FF0003"/>
<path d="M158.924 229.427V147.529H197.627V163.449H178.39V176.509H196.613V192.238H178.39V229.423H158.929L158.924 229.427Z" fill="#FF0003"/>
<path d="M201.225 229.427L210.563 147.529H243.302L252.526 229.427H234.188L232.837 216.173H221.138L220.015 229.427H201.225ZM222.599 203.113H231.375L227.102 161.45H226.202L222.599 203.113Z" fill="#FF0003"/>
<path d="M262.311 224.663C258.408 220.98 256.462 215.035 256.462 206.835V198.825H275.475V209.029C275.475 213.098 277.013 215.131 280.087 215.131C281.81 215.131 283.014 214.702 283.685 213.846C284.361 212.989 284.699 211.542 284.699 209.505C284.699 206.835 284.323 204.627 283.576 202.88C282.824 201.133 281.867 199.672 280.706 198.492C279.54 197.316 277.46 195.489 274.462 193.009L266.137 185.951C259.684 180.611 256.462 174.7 256.462 168.218C256.462 161.227 258.356 155.906 262.144 152.246C265.933 148.591 271.463 146.763 278.74 146.763C287.44 146.763 293.703 148.719 297.53 152.626C301.356 156.534 303.27 162.654 303.27 170.978H283.58L283.466 165.353C283.466 164.272 283.109 163.416 282.395 162.778C281.681 162.145 280.687 161.826 279.416 161.826C277.912 161.826 276.789 162.178 276.042 162.873C275.29 163.573 274.918 164.525 274.918 165.734C274.918 168.404 276.717 171.169 280.32 174.029L291.571 183.181C294.194 185.342 296.369 187.393 298.096 189.33C299.819 191.272 301.209 193.557 302.256 196.193C303.308 198.83 303.831 201.961 303.831 205.583C303.831 213.655 302.089 219.776 298.601 223.935C295.112 228.1 289.358 230.179 281.334 230.179C272.558 230.179 266.218 228.338 262.321 224.649L262.311 224.663Z" fill="#FF0003"/>
</svg>
