<svg viewBox="0 0 335 243" fill="none" xmlns="http://www.w3.org/2000/svg">
<g clip-path="url(#clip0_16_23)">
<path fill-rule="evenodd" clip-rule="evenodd" d="M38.6639 103.3L334.611 101.947L335.24 241.582L39.2931 242.934L39.2926 242.821L0.262795 243L0.231934 236.15L39.2617 235.972L38.6639 103.3Z" fill="white"/>
<path d="M50.8167 234.794V219.718L69.593 167.117H52.6277V151.854H87.0388V166.335L67.7819 219.531H86.1887V234.794H50.8167Z" fill="#FF0003"/>
<path d="M97.1666 229.769C93.877 225.897 92.2507 220.164 92.2507 212.57V151.854H108.255V211.9C108.255 214.543 108.514 216.591 109.031 218.08C109.549 219.569 110.621 220.313 112.284 220.313C113.947 220.313 115.019 219.569 115.536 218.154C116.054 216.702 116.313 214.618 116.313 211.937V151.891H132.317V212.607C132.317 220.202 130.654 225.934 127.364 229.806C124.074 233.677 119.048 235.613 112.284 235.613C105.52 235.613 100.493 233.677 97.2035 229.806L97.1666 229.769Z" fill="#FF0003"/>
<path d="M158.929 234.794V151.854H191.898V167.861H175.709V183.98H191.233V199.615H175.709V218.638H192.97V234.757H158.929V234.794Z" fill="#FF0003"/>
<path d="M199.366 234.794V151.854H232.335V167.973H215.961V181.188H231.485V197.121H215.961V234.757H199.366V234.794Z" fill="#FF0003"/>
<path d="M236.363 234.794L244.31 151.854H272.216L280.089 234.794H264.454L263.308 221.393H253.329L252.368 234.794H236.363ZM254.585 208.177H262.051L258.392 166H257.616L254.548 208.177H254.585Z" fill="#FF0003"/>
<path d="M289.366 229.992C286.039 226.269 284.376 220.239 284.376 211.937V203.822H300.565V214.134C300.565 218.266 301.859 220.313 304.483 220.313C305.961 220.313 306.959 219.866 307.551 219.01C308.142 218.154 308.401 216.665 308.401 214.618C308.401 211.9 308.068 209.666 307.44 207.917C306.811 206.13 305.998 204.678 305 203.487C304.002 202.296 302.228 200.434 299.678 197.94L292.581 190.793C287.074 185.395 284.339 179.402 284.339 172.85C284.339 165.777 285.965 160.379 289.181 156.693C292.396 153.008 297.128 151.147 303.337 151.147C310.729 151.147 316.089 153.12 319.341 157.066C322.594 161.012 324.22 167.229 324.22 175.642H307.44L307.329 169.946C307.329 168.866 307.033 167.973 306.405 167.34C305.776 166.707 304.963 166.372 303.854 166.372C302.561 166.372 301.6 166.707 300.971 167.452C300.343 168.196 300.011 169.127 300.011 170.356C300.011 173.073 301.563 175.865 304.594 178.769L314.167 188.038C316.421 190.234 318.269 192.319 319.711 194.255C321.189 196.228 322.372 198.536 323.259 201.216C324.146 203.896 324.59 207.061 324.59 210.709C324.59 218.899 323.111 225.078 320.118 229.285C317.161 233.491 312.245 235.613 305.407 235.613C297.941 235.613 292.544 233.752 289.218 230.029L289.366 229.992Z" fill="#FF0003"/>
<path d="M160.099 -0.368668L245.073 -1.52267L245.11 5.28975L160.136 6.48099L160.099 -0.368668Z" fill="white"/>
</g>
</svg>
