<svg viewBox="0 0 284 153" fill="none" xmlns="http://www.w3.org/2000/svg">
<path d="M51.5592 1.17935C50.5941 2.09621 27.6202 23.9597 21.8297 50.9247L20.1114 58.9413L17.2161 58.3301C11.7786 57.1546 6.38823 60.634 5.23483 66.0881L1.18614 84.8954C0.00920331 90.326 3.49295 95.7096 8.95396 96.8615L11.8492 97.4728L3.61064 135.887C3.11633 138.238 4.59928 140.542 6.95316 141.035L55.6785 151.473C58.0324 151.967 60.3392 150.486 60.8335 148.135L69.0721 109.721L267.669 152.249C273.107 153.425 278.497 149.945 279.65 144.491L283.699 125.684C284.876 120.253 281.392 114.87 275.931 113.718L77.3343 71.1896L79.0526 63.1729C84.8431 36.2315 66.9065 12.8399 66.1298 11.7585C64.8116 9.90124 56.8319 0.403549 55.4196 0.0979302C54.0073 -0.207689 52.5714 0.215476 51.5357 1.17935H51.5592ZM100.991 83.5083C116.056 86.6821 132.109 90.0909 148.186 93.4997C164.24 96.9791 180.293 100.458 195.334 103.726C210.376 107.041 224.405 110.144 236.41 112.801C260.419 118.255 276.449 121.899 276.449 121.899C276.449 121.899 260.349 118.655 236.198 113.812C224.146 111.32 210.07 108.405 195.005 105.278C179.94 102.081 163.887 98.6953 147.809 95.2864C131.756 91.8071 115.726 88.3277 100.661 85.06C88.1386 82.2859 76.3456 79.6764 65.8002 77.349L66.0592 76.2675C76.6281 78.4539 88.4446 80.8988 100.991 83.5083ZM49.582 10.677C47.9107 12.8164 46.2395 14.9792 44.7094 17.2361C43.9327 18.341 43.1559 19.4695 42.4262 20.6214C41.6729 21.7498 40.9197 22.8783 40.2371 24.0537C38.8012 26.3341 37.483 28.7085 36.2119 31.1065C35.5999 32.3054 34.9644 33.5044 34.3759 34.7034L32.7046 38.3708C31.716 40.8628 30.7274 43.3547 29.9741 45.9172C29.5269 47.1867 29.1973 48.4797 28.9149 49.7727C28.6089 51.0657 27.2907 56.943 27.0318 58.3066L25.4076 66.3232C23.1714 77.0198 20.9117 87.693 18.5343 98.3661C16.2745 108.616 12.4377 125.754 10.0132 135.981L17.2632 137.744C20.1114 138.426 22.936 139.131 25.7607 139.86C31.4335 141.317 50.9001 145.667 56.5495 147.242C50.7589 146.348 31.1982 142.352 25.4547 141.364C22.5829 140.871 19.6877 140.353 16.8159 139.813L8.20071 138.214L6.97669 137.979L7.23562 136.686C9.2835 125.966 12.9085 108.358 15.1211 97.6609C17.3338 86.9642 19.6641 76.291 22.018 65.6179L23.8305 57.6248C24.113 56.3083 25.4782 50.337 25.8548 48.9969C26.2079 47.6334 26.5845 46.2934 27.0789 45.0004C27.9263 42.3438 29.0796 39.8049 30.2095 37.2659L32.0691 33.5514C32.7046 32.329 33.4108 31.13 34.0934 29.931C35.5058 27.5566 36.9887 25.2292 38.5893 22.9723C39.3661 21.8439 40.1664 20.7154 41.0138 19.634C41.8377 18.5291 42.7086 17.4477 43.5796 16.4133C45.2979 14.2739 47.1339 12.2286 48.9935 10.2069C50.8531 8.20858 52.8303 6.28083 54.8547 4.44712C53.0186 6.46891 51.3003 8.58473 49.582 10.7006V10.677Z" fill="white"/>
</svg>
