<svg viewBox="0 0 188 157" fill="none" xmlns="http://www.w3.org/2000/svg">
<path d="M184.726 145.27H178.653C177.382 145.27 176.346 144.236 176.346 142.966V61.7891C176.346 60.5196 175.311 59.4852 174.039 59.4852H139.626C138.355 59.4852 137.319 60.5196 137.319 61.7891V143.107C137.319 144.306 136.354 145.27 135.153 145.27C133.953 145.27 132.988 144.306 132.988 143.107V51.3746C132.988 50.1051 134.023 49.0707 135.295 49.0707H145.181C147.346 49.0707 148.312 46.3906 146.664 45.0036L94.8078 1.20607C93.9604 0.477289 92.7128 0.477289 91.8419 1.20607L37.3024 45.8734C35.6312 47.2605 36.5963 49.964 38.7618 49.964H49.6368C50.9079 49.964 51.9436 50.9984 51.9436 52.2679V142.99C51.9436 144.259 50.9079 145.294 49.6368 145.294C48.3657 145.294 47.33 144.259 47.33 142.99V61.2249C47.33 59.9554 46.2942 58.921 45.0232 58.921H12.3277C11.0566 58.921 10.0209 59.9554 10.0209 61.2249V142.919C10.0209 144.236 8.93814 145.27 7.6435 145.223L3.17112 145.082C1.87649 145.035 0.793701 146.093 0.793701 147.386V154.533C0.793701 155.802 1.82941 156.837 3.10051 156.837H184.75C186.021 156.837 187.056 155.802 187.056 154.533V147.597C187.056 146.328 186.021 145.294 184.75 145.294L184.726 145.27Z" fill="#FF0003"/>
<path d="M184.726 145.27H178.653C177.382 145.27 176.346 144.236 176.346 142.966V61.7891C176.346 60.5196 175.311 59.4852 174.039 59.4852H139.626C138.355 59.4852 137.319 60.5196 137.319 61.7891V143.107C137.319 144.306 136.354 145.27 135.153 145.27C133.953 145.27 132.988 144.306 132.988 143.107V51.3746C132.988 50.1051 134.023 49.0707 135.295 49.0707H145.181C147.346 49.0707 148.312 46.3906 146.664 45.0036L94.8078 1.20607C93.9604 0.477289 92.7128 0.477289 91.8419 1.20607L37.3024 45.8734C35.6312 47.2605 36.5963 49.964 38.7618 49.964H49.6368C50.9079 49.964 51.9436 50.9984 51.9436 52.2679V142.99C51.9436 144.259 50.9079 145.294 49.6368 145.294C48.3657 145.294 47.33 144.259 47.33 142.99V61.2249C47.33 59.9554 46.2942 58.921 45.0232 58.921H12.3277C11.0566 58.921 10.0209 59.9554 10.0209 61.2249V142.919C10.0209 144.236 8.93814 145.27 7.6435 145.223L3.17112 145.082C1.87649 145.035 0.793701 146.093 0.793701 147.386V154.533C0.793701 155.802 1.82941 156.837 3.10051 156.837H184.75C186.021 156.837 187.056 155.802 187.056 154.533V147.597C187.056 146.328 186.021 145.294 184.75 145.294L184.726 145.27ZM37.3495 133.986C37.3495 135.255 36.3138 136.29 35.0427 136.29H21.6726C20.4015 136.29 19.3658 135.255 19.3658 133.986V120.632C19.3658 119.363 20.4015 118.329 21.6726 118.329H35.0427C36.3138 118.329 37.3495 119.363 37.3495 120.632V133.986ZM37.3495 110.477C37.3495 111.746 36.3138 112.78 35.0427 112.78H21.6726C20.4015 112.78 19.3658 111.746 19.3658 110.477V97.1234C19.3658 95.8539 20.4015 94.8195 21.6726 94.8195H35.0427C36.3138 94.8195 37.3495 95.8539 37.3495 97.1234V110.477ZM37.3495 86.9674C37.3495 88.2369 36.3138 89.2713 35.0427 89.2713H21.6726C20.4015 89.2713 19.3658 88.2369 19.3658 86.9674V73.6142C19.3658 72.3447 20.4015 71.3103 21.6726 71.3103H35.0427C36.3138 71.3103 37.3495 72.3447 37.3495 73.6142V86.9674ZM79.1545 140.216C79.1545 141.485 78.1187 142.519 76.8476 142.519H63.4776C62.2065 142.519 61.1708 141.485 61.1708 140.216V126.862C61.1708 125.593 62.2065 124.559 63.4776 124.559H76.8476C78.1187 124.559 79.1545 125.593 79.1545 126.862V140.216ZM79.1545 117.67C79.1545 118.94 78.1187 119.974 76.8476 119.974H63.4776C62.2065 119.974 61.1708 118.94 61.1708 117.67V104.317C61.1708 103.048 62.2065 102.013 63.4776 102.013H76.8476C78.1187 102.013 79.1545 103.048 79.1545 104.317V117.67ZM101.281 140.216C101.281 141.485 100.245 142.519 98.9741 142.519H85.6041C84.333 142.519 83.2973 141.485 83.2973 140.216V126.862C83.2973 125.593 84.333 124.559 85.6041 124.559H98.9741C100.245 124.559 101.281 125.593 101.281 126.862V140.216ZM101.281 117.67C101.281 118.94 100.245 119.974 98.9741 119.974H85.6041C84.333 119.974 83.2973 118.94 83.2973 117.67V104.317C83.2973 103.048 84.333 102.013 85.6041 102.013H98.9741C100.245 102.013 101.281 103.048 101.281 104.317V117.67ZM122.843 140.216C122.843 141.485 121.807 142.519 120.536 142.519H107.166C105.895 142.519 104.859 141.485 104.859 140.216V126.862C104.859 125.593 105.895 124.559 107.166 124.559H120.536C121.807 124.559 122.843 125.593 122.843 126.862V140.216ZM122.843 117.67C122.843 118.94 121.807 119.974 120.536 119.974H107.166C105.895 119.974 104.859 118.94 104.859 117.67V104.317C104.859 103.048 105.895 102.013 107.166 102.013H120.536C121.807 102.013 122.843 103.048 122.843 104.317V117.67ZM165.495 133.986C165.495 135.255 164.459 136.29 163.188 136.29H149.818C148.547 136.29 147.511 135.255 147.511 133.986V120.632C147.511 119.363 148.547 118.329 149.818 118.329H163.188C164.459 118.329 165.495 119.363 165.495 120.632V133.986ZM165.495 110.477C165.495 111.746 164.459 112.78 163.188 112.78H149.818C148.547 112.78 147.511 111.746 147.511 110.477V97.1234C147.511 95.8539 148.547 94.8195 149.818 94.8195H163.188C164.459 94.8195 165.495 95.8539 165.495 97.1234V110.477ZM165.495 86.9674C165.495 88.2369 164.459 89.2713 163.188 89.2713H149.818C148.547 89.2713 147.511 88.2369 147.511 86.9674V73.6142C147.511 72.3447 148.547 71.3103 149.818 71.3103H163.188C164.459 71.3103 165.495 72.3447 165.495 73.6142V86.9674Z" fill="white"/>
<path d="M121.036 54.0546C121.036 69.0126 108.895 81.1417 93.9132 81.1417C78.9317 81.1417 66.79 69.0126 66.79 54.0546C66.79 39.0966 78.9317 26.9675 93.9132 26.9675C108.895 26.9675 121.036 39.0966 121.036 54.0546Z" stroke="#FF0003" stroke-width="3"/>
<path d="M76.4005 48.7416H85.8396C86.9224 48.7416 87.7933 47.8717 87.7933 46.7903V36.5403C87.7933 35.4589 88.6642 34.5891 89.747 34.5891H96.691C97.7737 34.5891 98.6447 35.4589 98.6447 36.5403V46.7903C98.6447 47.8717 99.5156 48.7416 100.598 48.7416H111.473C112.556 48.7416 113.427 49.6114 113.427 50.6928V57.628C113.427 58.7094 112.556 59.5793 111.473 59.5793H100.598C99.5156 59.5793 98.6447 60.4491 98.6447 61.5305V71.5689C98.6447 72.6504 97.7737 73.5202 96.691 73.5202H89.747C88.6642 73.5202 87.7933 72.6504 87.7933 71.5689V61.5305C87.7933 60.4491 86.9224 59.5793 85.8396 59.5793H76.4005C75.3177 59.5793 74.4468 58.7094 74.4468 57.628V50.6928C74.4468 49.6114 75.3177 48.7416 76.4005 48.7416Z" fill="#FF0003"/>
</svg>
