<svg viewBox="0 0 341 243" fill="none" xmlns="http://www.w3.org/2000/svg">
<g clip-path="url(#clip0_16_35)">
<path fill-rule="evenodd" clip-rule="evenodd" d="M220.093 7.83941L220.616 126.511L0.843809 128.207L0.252441 2.48607L220.062 0.753256L220.063 1.05557L303.373 0.384613L303.41 7.16841L220.093 7.83941Z" fill="black"/>
<path d="M18.1045 115.488V16.4961H38.5441L47.6736 63.8719V16.4961H66.8565V115.488H47.4518L37.5092 65.9366V115.488H18.1045Z" fill="white"/>
<path d="M76.8037 115.488V16.4961H116.537V35.6308H97.0216V54.876H115.724V73.5315H97.0216V96.2424H117.831V115.488H76.8037Z" fill="white"/>
<path d="M124.63 115.488V16.4961H143.813V115.488H124.63Z" fill="white"/>
<path d="M152.943 115.488V16.4961H173.383L182.512 63.8719V16.4961H201.695V115.488H182.29L172.348 65.9366V115.488H152.943Z" fill="white"/>
<path d="M142.648 236.253L340.798 235.073V241.857L142.685 243L142.648 236.253Z" fill="black"/>
</g>
</svg>
