<svg viewBox="0 0 323 243" fill="none" xmlns="http://www.w3.org/2000/svg">
<path d="M0 2.46356L218.943 0.745447L219.5 126.32L0.561599 128.043L0 2.46356Z" fill="black"/>
<path d="M83.0834 1.83056L301.96 0.0696182L301.988 6.8326L83.1119 8.59355L83.0834 1.83056Z" fill="black"/>
<path d="M141.951 235.822L322.596 234.67L322.629 241.433L141.985 242.59L141.951 235.822Z" fill="black"/>
<path d="M18.3329 116.202V15.961H41.4679L51.7909 63.9206V15.961H73.4886V116.202H51.5291L40.2876 66.0242V116.202H18.3281H18.3329Z" fill="white"/>
<path d="M89.5607 109.724C84.8538 104.784 82.5027 97.8402 82.5027 88.8927V41.1663C82.5027 32.5281 84.8538 26.0174 89.5607 21.6198C94.2677 17.227 101.15 15.0282 110.211 15.0282C119.273 15.0282 126.155 17.227 130.862 21.6198C135.569 26.0174 137.92 32.5281 137.92 41.1663V88.8927C137.92 97.9164 135.569 104.879 130.862 109.781C126.155 114.683 119.273 117.134 110.211 117.134C101.15 117.134 94.2677 114.664 89.5607 109.724ZM114.266 96.3648C114.961 94.8085 115.313 92.6288 115.313 89.8303V40.8189C115.313 38.6391 114.985 36.8734 114.333 35.5075C113.681 34.1463 112.348 33.4657 110.345 33.4657C106.599 33.4657 104.724 35.9929 104.724 41.0521V89.9445C104.724 92.8239 105.114 95.0037 105.899 96.479C106.685 97.9592 108.122 98.6969 110.211 98.6969C112.301 98.6969 113.562 97.9211 114.262 96.3648H114.266Z" fill="white"/>
<path d="M146.939 116.202V15.961H170.074L180.397 63.9206V15.961H202.095V116.202H180.135L168.894 66.0242V116.202H146.934H146.939Z" fill="white"/>
</svg>
