<svg viewBox="0 0 335 244" fill="none" xmlns="http://www.w3.org/2000/svg">
<path d="M0 3.46523L152.915 1.74535L153.473 127.32L0.557279 129.04L0 3.46523Z" fill="black"/>
<path d="M83.0537 2.55245L235.907 0.789335L235.935 7.55355L83.0825 9.31666L83.0537 2.55245Z" fill="black"/>
<path d="M141.952 236.826L334.041 235.673L334.074 242.437L141.986 243.59L141.952 236.826Z" fill="black"/>
<path d="M18.3326 117.203V16.96H41.4645L51.7886 64.9196V16.96H73.484V117.198H51.5292L40.2875 67.019V117.198H18.3326V117.203Z" fill="white"/>
<path d="M89.5634 110.727C84.8602 105.788 82.5062 98.8464 82.5062 89.8963V42.1673C82.5062 33.5295 84.8602 27.0151 89.5634 22.6193C94.2667 18.2235 101.151 16.028 110.212 16.028C119.272 16.028 126.156 18.2283 130.86 22.6193C135.563 27.0151 137.917 33.5295 137.917 42.1673V89.8963C137.917 98.9233 135.563 105.884 130.86 110.785C126.156 115.685 119.272 118.135 110.212 118.135C101.151 118.135 94.2667 115.666 89.5634 110.727ZM114.266 97.3667C114.963 95.8102 115.314 93.6339 115.314 90.8331V41.8214C115.314 39.6451 114.987 37.8724 114.334 36.5128C113.68 35.1533 112.349 34.4711 110.346 34.4711C106.599 34.4711 104.725 36.998 104.725 42.0568V90.9532C104.725 93.8309 105.119 96.012 105.902 97.4868C106.685 98.9665 108.127 99.7063 110.216 99.7063C112.306 99.7063 113.57 98.9281 114.266 97.3715V97.3667Z" fill="white"/>
</svg>
